<svg width="50" height="50" viewBox="0 0 50 50" fill="none" xmlns="http://www.w3.org/2000/svg">
<path d="M39.5834 10.4166H37.5001V6.24996C37.5001 5.69743 37.2806 5.16752 36.8899 4.77682C36.4992 4.38612 35.9693 4.16663 35.4167 4.16663C34.8642 4.16663 34.3343 4.38612 33.9436 4.77682C33.5529 5.16752 33.3334 5.69743 33.3334 6.24996V10.4166H16.6667V6.24996C16.6667 5.69743 16.4473 5.16752 16.0566 4.77682C15.6659 4.38612 15.136 4.16663 14.5834 4.16663C14.0309 4.16663 13.501 4.38612 13.1103 4.77682C12.7196 5.16752 12.5001 5.69743 12.5001 6.24996V10.4166H10.4167C8.75915 10.4166 7.16943 11.0751 5.99733 12.2472C4.82523 13.4193 4.16675 15.009 4.16675 16.6666V18.75H45.8334V16.6666C45.8334 15.009 45.1749 13.4193 44.0028 12.2472C42.8307 11.0751 41.241 10.4166 39.5834 10.4166Z" fill="#6B6BFF"/>
<path d="M4.16675 39.5833C4.16675 41.2409 4.82523 42.8306 5.99733 44.0027C7.16943 45.1748 8.75915 45.8333 10.4167 45.8333H39.5834C41.241 45.8333 42.8307 45.1748 44.0028 44.0027C45.1749 42.8306 45.8334 41.2409 45.8334 39.5833V22.9166H4.16675V39.5833Z" fill="#6B6BFF"/>
</svg>
