<svg width="50" height="50" viewBox="0 0 50 50" fill="none" xmlns="http://www.w3.org/2000/svg">
<g clip-path="url(#clip0_15_465)">
<path d="M24.9995 15.4742C19.7463 15.4742 15.4727 19.7478 15.4727 25.0007C15.4727 30.2539 19.7463 34.5275 24.9995 34.5275C30.2523 34.5275 34.5259 30.2539 34.5259 25.0007C34.5259 19.7478 30.2523 15.4742 24.9995 15.4742ZM30.6555 23.2066L23.8307 30.0315C23.5442 30.318 23.1684 30.4614 22.7931 30.4614C22.4177 30.4614 22.0423 30.3184 21.7558 30.0315L19.1477 27.4234C18.5748 26.8508 18.5748 25.9219 19.1477 25.349C19.7203 24.776 20.6492 24.776 21.2222 25.349L22.7931 26.9199L28.5811 21.1322C29.1537 20.5592 30.0826 20.5592 30.6555 21.1322C31.2285 21.7048 31.2285 22.6337 30.6555 23.2066Z" fill="#6B6BFF"/>
<path d="M46.239 13.5661L46.2374 13.5272C46.2157 13.047 46.2012 12.5388 46.1924 11.9735C46.1516 9.21664 43.9601 6.93622 41.2028 6.7821C35.4541 6.46129 31.0069 4.58675 27.2071 0.883073L27.1747 0.852174C25.9353 -0.284221 24.0657 -0.284221 22.8259 0.852174L22.7935 0.883073C18.9937 4.58675 14.5465 6.46129 8.7978 6.78249C6.04093 6.93622 3.84901 9.21664 3.80819 11.9739C3.7998 12.5354 3.78492 13.0435 3.76318 13.5272L3.76089 13.6176C3.64912 19.4797 3.51027 26.7753 5.9509 33.3972C7.29291 37.0387 9.32538 40.2041 11.9915 42.8061C15.028 45.7693 19.0051 48.1219 23.8124 49.798C23.9688 49.8526 24.1313 49.8968 24.2969 49.93C24.5303 49.9766 24.7653 49.9998 25.0003 49.9998C25.2353 49.9998 25.4707 49.9766 25.7037 49.93C25.8693 49.8968 26.0329 49.8522 26.1901 49.7973C30.9916 48.118 34.9646 45.7644 37.9985 42.8015C40.6634 40.1988 42.6959 37.0326 44.039 33.3903C46.4888 26.7486 46.3503 19.4392 46.239 13.5661ZM24.9995 37.4613C18.1285 37.4613 12.5389 31.8717 12.5389 25.0007C12.5389 18.1297 18.1285 12.54 24.9995 12.54C31.8702 12.54 37.4602 18.1297 37.4602 25.0007C37.4602 31.8717 31.8702 37.4613 24.9995 37.4613Z" fill="#6B6BFF"/>
</g>
<defs>
<clipPath id="clip0_15_465">
<rect width="50" height="50" fill="white"/>
</clipPath>
</defs>
</svg>
