<svg width="130" height="139" viewBox="0 0 130 139" fill="none" xmlns="http://www.w3.org/2000/svg">
<path fill-rule="evenodd" clip-rule="evenodd" d="M27.3356 0H117.844C124.043 0 129.179 5.13648 129.179 11.3357V101.844C129.179 108.043 124.043 113.179 117.844 113.179H27.3356C21.1365 113.179 16 108.043 16 101.844V11.3357C16 5.13648 21.1365 0 27.3356 0Z" fill="#3C3C94"/>
<path d="M80.3927 59.4174H77.089C71.8727 59.4174 66.6564 55.5275 66.6564 45.6261C66.6564 35.371 71.525 31.3043 76.3935 31.3043H80.3927V59.4174V59.4174ZM85.609 26H76.5674C67.5258 26 60.0491 32.8957 60.0491 46.3333C60.0491 54.4667 63.7005 60.3015 70.3078 63.3073L58.1364 85.7624C57.7887 86.4696 58.1364 87 58.8319 87H64.5699C65.0915 87 65.4393 86.8232 65.6131 86.4696L76.7413 64.3681H80.7404V86.4696C80.7404 86.6464 80.9143 87 81.2621 87H86.3045C86.8261 87 87 86.8232 87 86.2928V26.5305C86.6522 26.3537 86.3045 26 85.609 26Z" stroke="white" stroke-width="2.0001" stroke-miterlimit="22.9256"/>
<path fill-rule="evenodd" clip-rule="evenodd" d="M2.18226 122.105C2.18226 120.363 0.426262 118.098 1.65546 116.53C2.35786 115.485 4.28946 110.607 6.39666 112.523C6.39666 112.523 9.90866 114.265 9.55746 112.697C9.55746 112.697 10.2599 109.735 10.2599 109.387C10.2599 107.993 10.6111 107.122 10.2599 105.38C9.73306 103.289 12.1915 100.154 12.8939 97.8887C13.2451 96.8434 14.6499 95.2755 15.8791 94.7528C17.1083 94.2302 18.6887 93.7075 20.0935 93.7075C23.6055 93.8817 26.2395 93.3591 28.6979 96.495C30.9807 99.2825 33.7903 103.638 32.5611 107.296C32.0343 108.69 30.4539 110.432 29.7515 112.349C29.2247 113.742 27.4687 114.614 26.0639 115.485C25.8883 115.485 23.0787 116.181 22.9031 116.181C21.6739 116.356 21.4983 116.704 20.4447 117.401C19.7423 117.924 21.6739 118.621 22.0251 118.795C24.1323 120.014 24.1323 119.666 24.3079 122.453C24.4835 124.37 26.9419 125.415 27.1175 127.506C27.1175 128.202 27.4687 127.68 26.5907 128.551C24.6591 130.816 23.4299 135.345 19.5667 136.565C8.50386 140.049 3.58706 133.603 1.83106 123.499C1.65546 122.453 2.18226 123.15 2.18226 121.931V122.105Z" fill="white"/>
<path fill-rule="evenodd" clip-rule="evenodd" d="M4.44883 114.022C5.31422 112.955 5.83345 112.777 7.39115 113.845L4.27576 117.402C3.75653 118.113 3.23729 118.824 2.71806 119.536C2.89114 117.579 3.58345 115.09 4.44883 114.022ZM26.6027 124.338C26.0835 123.982 25.5642 123.626 24.8719 123.448C25.5642 121.848 25.045 119.891 23.8335 118.647C22.9681 117.935 21.9296 117.579 20.8912 117.579C20.7181 116.512 20.3719 115.445 19.5065 114.734C19.1604 114.378 18.6412 114.022 18.1219 113.845L22.9681 108.153C24.5258 106.375 24.3527 103.707 22.6219 102.106C20.8912 100.506 18.295 100.684 16.7373 102.462L11.0258 109.22L10.3335 109.932L8.94884 111.533C7.56423 110.288 4.96807 109.043 2.37191 111.888C0.46806 114.2 -1.08964 121.314 0.98729 124.338C0.641135 128.428 2.02575 132.519 5.31422 135.364C10.6796 140.166 18.295 139.811 22.795 134.475C23.3142 133.942 23.1412 133.052 22.6219 132.697C22.1027 132.163 21.2373 132.341 20.8912 132.875C17.2565 136.965 11.1988 137.321 6.87192 133.408C4.27576 131.096 3.06422 127.539 3.58345 124.16C3.58345 124.16 3.58345 124.16 3.58345 123.982C3.9296 122.026 4.62191 120.247 6.00653 118.647L12.2373 111.355L12.9296 110.643L18.6412 103.885C19.1604 103.174 20.1989 103.174 20.8912 103.707C21.5835 104.241 21.5835 105.308 21.0642 106.019L13.795 114.556L11.0258 117.757L10.8527 117.935C10.3335 118.469 10.5065 119.358 11.0258 119.714C11.545 120.247 12.4104 120.069 12.7565 119.536L12.9296 119.358L15.6988 116.157C16.2181 115.445 17.2565 115.445 17.9489 115.979C18.6412 116.512 18.6412 117.579 18.1219 118.291L15.1796 121.67C15.1796 121.67 15.1796 121.848 15.0065 121.848C14.6604 122.381 14.6604 123.093 15.1796 123.626C15.6988 124.16 16.3912 123.982 16.9104 123.626L19.8527 120.247C20.3719 119.536 21.4104 119.536 22.1027 120.069C22.795 120.603 22.795 121.67 22.2758 122.381L20.7181 124.16L19.3335 125.761C19.3335 125.761 19.3335 125.938 19.1604 125.938C18.8142 126.472 18.8142 127.183 19.3335 127.717C19.8527 128.073 20.545 128.073 21.0642 127.717L22.4489 126.116C22.9681 125.405 24.0066 125.405 24.6989 125.938C25.3912 126.472 25.3912 127.539 24.8719 128.25L24.1796 129.14C23.6604 129.673 23.8335 130.562 24.3527 130.918C24.8719 131.452 25.7373 131.274 26.0835 130.74L26.7758 129.851C28.5066 128.428 28.3335 125.761 26.6027 124.338Z" fill="#FFC14E"/>
<path fill-rule="evenodd" clip-rule="evenodd" d="M21.9156 111.712C21.2067 111.712 20.675 112.428 20.675 113.144C20.675 113.501 20.8522 113.859 21.0295 114.038C21.2067 114.217 21.5612 114.396 22.0929 114.396C24.2196 114.217 26.1692 113.323 27.7642 111.712C29.5365 109.922 30.4227 107.596 30.4227 105.269C30.4227 102.763 29.5365 100.437 27.7642 98.8261C24.2196 95.2468 18.371 95.2468 14.8264 98.8261C13.0541 100.616 12.168 102.942 12.168 105.269C12.168 105.985 12.6997 106.522 13.4086 106.522C14.1175 106.522 14.6492 105.985 14.6492 105.269C14.6492 103.479 15.3581 101.869 16.5987 100.616C19.0799 98.1102 23.3335 98.1102 25.8147 100.616C27.0553 101.869 27.7642 103.479 27.7642 105.269C27.7642 107.059 27.0553 108.669 25.8147 109.922C24.9285 110.817 23.5107 111.533 21.9156 111.712Z" fill="#FFC14E"/>
<path fill-rule="evenodd" clip-rule="evenodd" d="M24.2804 116.009C24.4553 116.696 25.3299 117.039 25.8547 116.696C27.6039 116.009 29.0033 115.151 30.4027 113.777C35.3006 108.799 35.3006 100.902 30.4027 96.0957C27.9538 93.6924 24.8052 92.4907 21.3067 92.4907C17.8082 92.4907 14.6596 93.864 12.2106 96.2673C9.06198 99.529 7.66258 104.164 9.06198 108.456C9.06198 108.627 9.2369 108.971 9.41183 109.142C9.76168 109.486 10.1115 109.486 10.6363 109.486C11.336 109.314 11.6858 108.627 11.5109 107.941C10.4614 104.507 11.5109 100.731 14.1348 98.1557C16.0589 96.2674 18.6828 95.2374 21.3067 95.2374C24.1055 95.2374 26.5544 96.2674 28.4786 98.1557C32.5018 102.104 32.5018 108.456 28.4786 112.404C27.429 113.434 26.2045 114.292 24.8052 114.636C24.2804 114.636 23.9305 115.494 24.2804 116.009Z" fill="#FFC14E"/>
</svg>
