<svg width="50" height="50" viewBox="0 0 50 50" fill="none" xmlns="http://www.w3.org/2000/svg">
<path d="M25 33.3333C26.1935 33.3333 27.872 30.106 28.0833 25H21.9167C22.1281 30.106 23.8066 33.3333 25 33.3333Z" fill="#6B6BFF"/>
<path d="M15.7302 22.9166H19.8129C19.9283 20.0791 20.5143 17.2572 21.5316 15.266C18.3901 16.5242 16.122 19.4339 15.7302 22.9166Z" fill="#6B6BFF"/>
<path d="M28.4683 15.266C29.4855 17.2573 30.0716 20.0791 30.1869 22.9166H34.2696C33.8778 19.4339 31.6098 16.5242 28.4683 15.266Z" fill="#6B6BFF"/>
<path d="M25 14.5834C23.8066 14.5834 22.1281 17.8106 21.9167 22.9167H28.0833C27.872 17.8106 26.1936 14.5834 25 14.5834Z" fill="#6B6BFF"/>
<path d="M15.7302 25C16.122 28.4827 18.3901 31.3924 21.5316 32.6506C20.5143 30.6593 19.9283 27.8375 19.8129 25H15.7302Z" fill="#6B6BFF"/>
<path d="M39.5833 6.25003H37.4999V4.09486C37.4999 1.49359 35.0463 -0.539997 32.4025 0.128361L10.179 6.27405C7.99345 6.40013 6.25 8.20002 6.25 10.4166V45.8333C6.25 48.1312 8.11875 49.9998 10.4167 49.9998H39.5833C41.8813 49.9998 43.7499 48.1312 43.7499 45.8333V10.4166C43.7499 8.11868 41.8813 6.25003 39.5833 6.25003ZM32.9375 2.14154C34.1532 1.83129 35.4165 2.81595 35.4165 4.09476V6.24993H18.0824L32.9375 2.14154ZM30.2084 43.75H18.75C18.1742 43.75 17.7083 43.284 17.7083 42.7083C17.7083 42.1325 18.1742 41.6666 18.75 41.6666H30.2083C30.784 41.6666 31.25 42.1325 31.25 42.7083C31.25 43.284 30.784 43.75 30.2084 43.75ZM34.3749 39.5842H14.5834C14.0076 39.5842 13.5417 39.1183 13.5417 38.5425C13.5417 37.9668 14.0076 37.5008 14.5834 37.5008H34.3749C34.9507 37.5008 35.4166 37.9668 35.4166 38.5425C35.4166 39.1183 34.9507 39.5842 34.3749 39.5842ZM25 35.4166C18.6818 35.4166 13.5417 30.2764 13.5417 23.9583C13.5417 17.6401 18.6818 12.5 25 12.5C31.3181 12.5 36.4582 17.6401 36.4582 23.9583C36.4582 30.2764 31.3181 35.4166 25 35.4166Z" fill="#6B6BFF"/>
<path d="M28.4683 32.6506C31.6098 31.3924 33.8779 28.4826 34.2696 25H30.1869C30.0716 27.8375 29.4855 30.6593 28.4683 32.6506Z" fill="#6B6BFF"/>
</svg>
