<svg width="50" height="50" viewBox="0 0 50 50" fill="none" xmlns="http://www.w3.org/2000/svg">
<path fill-rule="evenodd" clip-rule="evenodd" d="M28.6764 41.9117C28.6764 37.4444 32.297 33.8234 36.7646 33.8234C41.2319 33.8234 44.8529 37.4441 44.8529 41.9117C44.8529 46.379 41.2322 50 36.7646 50C32.2974 50 28.6764 46.3794 28.6764 41.9117ZM34.6476 40.6562C34.3606 40.3692 33.8975 40.3671 33.6032 40.6614L32.5731 41.6915C32.2833 41.9813 32.2791 42.4471 32.5674 42.7354L34.9895 45.1575C35.5638 45.7318 36.4949 45.7318 37.0691 45.1575L41.6943 40.5323C41.9825 40.2441 41.9856 39.78 41.6914 39.4856L40.6613 38.4556C40.3715 38.1657 39.9039 38.1634 39.6163 38.451L36.0293 42.038L34.6476 40.6562ZM6.0084 10.2941L15.441 0.861426V10.2941H6.0084ZM38.9705 31.8545C38.2599 31.6994 37.5218 31.6177 36.7646 31.6177C31.0789 31.6177 26.4705 36.2262 26.4705 41.9118C26.4705 42.669 26.5522 43.407 26.7073 44.1177H6.61758C5.80537 44.1177 5.14697 43.4593 5.14697 42.6471V13.2353H16.9117C17.7239 13.2353 18.3823 12.5769 18.3823 11.7646V0H37.4999C38.3121 0 38.9705 0.658398 38.9705 1.47061V31.8545Z" fill="#6B6BFF"/>
</svg>
