<svg width="45" height="45" viewBox="0 0 45 45" fill="none" xmlns="http://www.w3.org/2000/svg">
<rect width="45" height="45" rx="5" fill="#F9F9F9"/>
<mask id="mask0_15_301" style="mask-type:alpha" maskUnits="userSpaceOnUse" x="0" y="0" width="45" height="45">
<rect width="45" height="45" rx="5" fill="#F9F9F9"/>
</mask>
<g mask="url(#mask0_15_301)">
<path d="M61 -0.666504H-8V45.3325H61V-0.666504Z" fill="#D80027"/>
<path d="M25.3152 17.0484L27.6863 20.3159L31.5262 19.0708L29.1515 22.3354L31.5223 25.6027L27.6836 24.3528L25.3089 27.6175L25.3113 23.5806L21.4727 22.3307L25.3127 21.0856L25.3152 17.0484Z" fill="#F0F0F0"/>
<path d="M18.8451 30.5C14.3346 30.5 10.678 26.8434 10.678 22.333C10.678 17.8225 14.3346 14.1659 18.8451 14.1659C20.2515 14.1659 21.5746 14.5215 22.73 15.1475C20.9177 13.3751 18.439 12.2812 15.704 12.2812C10.1526 12.2812 5.65234 16.7816 5.65234 22.3328C5.65234 27.8841 10.1527 32.3844 15.704 32.3844C18.439 32.3844 20.9177 31.2906 22.73 29.5181C21.5748 30.1444 20.2515 30.5 18.8451 30.5Z" fill="#F0F0F0"/>
</g>
</svg>
