<svg width="45" height="45" viewBox="0 0 45 45" fill="none" xmlns="http://www.w3.org/2000/svg">
<rect width="45" height="45" rx="5" fill="#F9F9F9"/>
<mask id="mask0_15_270" style="mask-type:alpha" maskUnits="userSpaceOnUse" x="0" y="0" width="45" height="45">
<rect width="45" height="45" rx="5" fill="#F9F9F9"/>
</mask>
<g mask="url(#mask0_15_270)">
<path d="M56 0H-9V46.4286H56V0Z" fill="#E92B2B"/>
<path d="M-9 46.4286H14.2143V0H-9V46.4286Z" fill="#32AB45"/>
<path fill-rule="evenodd" clip-rule="evenodd" d="M14.2142 16.25C10.3679 16.25 7.2499 19.368 7.2499 23.2143C7.2499 27.0606 10.3679 30.1786 14.2142 30.1786C18.0605 30.1786 21.1785 27.0606 21.1785 23.2143C21.1785 19.368 18.0605 16.25 14.2142 16.25ZM4.92847 23.2143C4.92847 18.086 9.08586 13.9286 14.2142 13.9286C19.3425 13.9286 23.4999 18.086 23.4999 23.2143C23.4999 28.3426 19.3425 32.5 14.2142 32.5C9.08586 32.5 4.92847 28.3426 4.92847 23.2143Z" fill="#FFE70E"/>
<path fill-rule="evenodd" clip-rule="evenodd" d="M19.1977 29.8382L7.59058 18.2311L9.23197 16.5897L20.8391 28.1968L19.1977 29.8382Z" fill="#FFE70E"/>
<path fill-rule="evenodd" clip-rule="evenodd" d="M13.0532 31.4216V15.0067H15.3747V31.4216H13.0532Z" fill="#FFE70E"/>
<path fill-rule="evenodd" clip-rule="evenodd" d="M6.08667 22.1361H22.5016V24.4575H6.08667V22.1361Z" fill="#FFE70E"/>
<path fill-rule="evenodd" clip-rule="evenodd" d="M9.231 29.8382L20.8381 18.2311L19.1967 16.5897L7.5896 28.1968L9.231 29.8382Z" fill="#FFE70E"/>
<path d="M17.6965 18.5714H10.7322C10.0912 18.5714 9.57153 19.0911 9.57153 19.7321V24.375C9.57153 26.9392 11.6502 29.0179 14.2144 29.0179C16.7786 29.0179 18.8572 26.9392 18.8572 24.375V19.7321C18.8572 19.0911 18.3375 18.5714 17.6965 18.5714Z" fill="#E92B2B"/>
<path d="M16.5354 20.8931H11.8926V24.3752C11.8926 25.6574 12.9319 26.6966 14.214 26.6966C15.4962 26.6966 16.5354 25.6574 16.5354 24.3752V20.8931Z" fill="#FBFBFB"/>
</g>
</svg>
